<svg xmlns="http://www.w3.org/2000/svg" viewBox="0 0 49.3 57.47"><defs><style>.bac8582e-71fc-45e9-9b09-aa8df2c52ca9{fill:#fff;}.e56a6070-e100-4d3b-9a08-c13e37c91ba5{fill:#b5b9ba;}.fb406563-b94c-43b5-ba3a-78418abfc0f4{fill:#31393c;}</style></defs><g id="bbde1439-817e-49a6-a2f2-0264132cfe6e" data-name="Layer 2"><g id="a82564cd-6116-49b6-a840-b82cfa2c5ed6" data-name="1"><g id="b6ba4723-e024-432a-ab37-f5523d3d6303" data-name="496, Biology, Microscope, Science"><path class="bac8582e-71fc-45e9-9b09-aa8df2c52ca9" d="M36.09,3.73a2.7,2.7,0,0,1-.3,1.21L34.58,7.16,30.15,4.84l1.21-2.22a2.49,2.49,0,0,1,3.42-1A2.25,2.25,0,0,1,36.09,3.73Z"/><path class="e56a6070-e100-4d3b-9a08-c13e37c91ba5" d="M7.56,11.39A3.13,3.13,0,1,1,4.44,8.27,3.14,3.14,0,0,1,7.56,11.39Z"/><path class="e56a6070-e100-4d3b-9a08-c13e37c91ba5" d="M10.69,8.27a3.13,3.13,0,1,1-3.13,3.12A3.14,3.14,0,0,1,10.69,8.27Z"/><path class="e56a6070-e100-4d3b-9a08-c13e37c91ba5" d="M7.56,14.62a3.13,3.13,0,1,1-3.12,3.12A3.14,3.14,0,0,1,7.56,14.62Z"/><path class="e56a6070-e100-4d3b-9a08-c13e37c91ba5" d="M40.93,30.15A3.83,3.83,0,0,1,39,37.3a3.36,3.36,0,0,1-1.72-.4,1.79,1.79,0,0,1-.7-.5l-.2-.21a5.08,5.08,0,0,1-.71-.9.35.35,0,0,0-.1-.2c-.1-.31-.2-.71-.3-1v-.51h0v-.2h0v-.2h0v-.4c0-.1.1-.2.1-.41v-.1c.1-.2.1-.3.2-.5l.1-.1.1-.1h0l.1-.1h0a3.75,3.75,0,0,1,.91-.91l.1-.1a.76.76,0,0,1,.4-.2.1.1,0,0,0,.1-.1c.11,0,.21-.11.31-.11h1.51A1.88,1.88,0,0,1,40.93,30.15Z"/><polygon class="e56a6070-e100-4d3b-9a08-c13e37c91ba5" points="47.89 51.12 47.89 56.16 2.52 56.16 2.52 51.12 8.87 51.12 41.64 51.12 47.89 51.12"/><path class="e56a6070-e100-4d3b-9a08-c13e37c91ba5" d="M41.64,50.21v.91H8.87v-.91a6.65,6.65,0,0,1,6.66-6.65H35A6.65,6.65,0,0,1,41.64,50.21Z"/><path class="bac8582e-71fc-45e9-9b09-aa8df2c52ca9" d="M46.68,19.26l-3.53,6.65-2.22,4.24a3.12,3.12,0,0,0-1.31-.41H38.11c-.1,0-.2.1-.3.1s-.1,0-.1.1-.31.1-.41.21l-.1.1a2,2,0,0,0-.9.9h0l-.11.1h0l-.1.11-.1.1c-.1.2-.2.3-.2.5v.1c0,.1-.1.2-.1.4v.41h0V33h0v.2h0v.5a2.92,2.92,0,0,0,.3,1,.35.35,0,0,0,.1.2,5.77,5.77,0,0,0,.71.91l.2.2a3.14,3.14,0,0,0,.71.51l-2.83,5-1.1,2H22.58l-6.75-3.63a3.8,3.8,0,0,1-2-3.33,3.77,3.77,0,0,1,5.55-3.43l6.85,3.63c1.11.6,3-.91,3.63-2L35.39,24.4a2.18,2.18,0,0,0-.91-3L31,19.46l3.53-6.66L40,15.73Z"/><polygon class="bac8582e-71fc-45e9-9b09-aa8df2c52ca9" points="20.77 16.94 27.93 3.63 30.15 4.74 34.58 7.16 36.8 8.37 34.48 12.8 30.85 19.46 28.53 23.89 25.11 25 20.67 22.58 19.66 19.16 20.77 16.94"/><path class="fb406563-b94c-43b5-ba3a-78418abfc0f4" d="M7.56,22.18a4.44,4.44,0,0,1,0-8.87,4.44,4.44,0,1,1,0,8.87Zm0-6.35a1.92,1.92,0,1,0,1.92,1.91A1.91,1.91,0,0,0,7.56,15.83Z"/><path class="fb406563-b94c-43b5-ba3a-78418abfc0f4" d="M25.1,26.21a1.27,1.27,0,0,1-.6-.1l-4.44-2.32a1.34,1.34,0,0,1-.6-.7l-1-3.43a1.21,1.21,0,0,1,.1-1L26.82,3a1.34,1.34,0,0,1,.7-.6,1.2,1.2,0,0,1,1,.1l2.22,1.21A1.26,1.26,0,0,1,29.54,6l-1.11-.61L21,19.36l.71,2.42,3.53,1.91,2.41-.7,2.12-4A1.26,1.26,0,0,1,32,20.16L29.64,24.6a1.37,1.37,0,0,1-.7.61l-3.43,1Z"/><path class="fb406563-b94c-43b5-ba3a-78418abfc0f4" d="M34.48,14a1.27,1.27,0,0,1-.6-.1,1.29,1.29,0,0,1-.51-1.71l1.82-3.33L34,8.27a1.26,1.26,0,1,1,1.21-2.22L37.4,7.26A1.31,1.31,0,0,1,38,8a1.18,1.18,0,0,1-.1,1l-2.32,4.44A1.4,1.4,0,0,1,34.48,14Z"/><path class="fb406563-b94c-43b5-ba3a-78418abfc0f4" d="M26.42,21.17a1.29,1.29,0,0,1-.61-.1l-5.54-2.92a1.26,1.26,0,1,1,1.21-2.22L27,18.85a1.3,1.3,0,0,1,.5,1.72A1.38,1.38,0,0,1,26.42,21.17Z"/><path class="fb406563-b94c-43b5-ba3a-78418abfc0f4" d="M34.58,8.37a1.27,1.27,0,0,1-.6-.1L29.54,6a1.33,1.33,0,0,1-.6-.71,1.21,1.21,0,0,1,.1-1L30.25,2a3.85,3.85,0,0,1,3.32-2,6,6,0,0,1,1.82.4,3.87,3.87,0,0,1,2,3.33A6,6,0,0,1,37,5.55L35.79,7.76A1.56,1.56,0,0,1,34.58,8.37ZM31.86,4.23l2.22,1.21.6-1.1a1.33,1.33,0,0,0,.1-.61,1.24,1.24,0,0,0-.7-1.11,1.31,1.31,0,0,0-.61-.1,1.25,1.25,0,0,0-1.11.71Z"/><path class="fb406563-b94c-43b5-ba3a-78418abfc0f4" d="M31.15,33.67a1.27,1.27,0,0,1-.6-.1L14.92,25.31a1.26,1.26,0,0,1,1.21-2.22l15.63,8.27a1.28,1.28,0,0,1,.5,1.71A1.15,1.15,0,0,1,31.15,33.67Z"/><path class="fb406563-b94c-43b5-ba3a-78418abfc0f4" d="M47.89,57.47H2.52a1.33,1.33,0,0,1-1.31-1.31v-5a1.33,1.33,0,0,1,1.31-1.31H8.87a1.31,1.31,0,0,1,0,2.62h-5V55H46.68V52.43h-5a1.31,1.31,0,1,1,0-2.62H48a1.33,1.33,0,0,1,1.31,1.31v5A1.5,1.5,0,0,1,47.89,57.47Z"/><path class="fb406563-b94c-43b5-ba3a-78418abfc0f4" d="M41.64,52.43H8.87a1.34,1.34,0,0,1-1.31-1.31v-.91a7.87,7.87,0,0,1,7.87-7.86h7.05a1.31,1.31,0,0,1,1.31,1.21,1.33,1.33,0,0,1-1.31,1.31h-7a5.32,5.32,0,0,0-5.35,5H40.33a5.39,5.39,0,0,0-5.35-5h-1.1a1.33,1.33,0,0,1-1.31-1.31,1.24,1.24,0,0,1,1.31-1.21H35a7.87,7.87,0,0,1,7.87,7.86v.91A1.33,1.33,0,0,1,41.64,52.43Z"/><path class="fb406563-b94c-43b5-ba3a-78418abfc0f4" d="M39.52,31h-.4A1.21,1.21,0,0,1,38,29.64a1.23,1.23,0,0,1,1.31-1.11h.3a1.25,1.25,0,0,1,1.11,1.41C40.73,30.55,40.23,31,39.52,31Z"/><path class="fb406563-b94c-43b5-ba3a-78418abfc0f4" d="M38.82,31a1.2,1.2,0,0,1-1.21-1.11,1.17,1.17,0,0,1,1.11-1.31h.2a1.26,1.26,0,0,1,1.21,1.31,1.17,1.17,0,0,1-1.21,1.21h0A.1.1,0,0,0,38.82,31Z"/><path class="fb406563-b94c-43b5-ba3a-78418abfc0f4" d="M38.51,31a1.2,1.2,0,0,1-1.21-1.11,1.26,1.26,0,0,1,1-1.41h.3A1.34,1.34,0,0,1,40,29.54,1.26,1.26,0,0,1,38.92,31h-.41Z"/><path class="fb406563-b94c-43b5-ba3a-78418abfc0f4" d="M38.11,31.05a1.41,1.41,0,0,1-1.21-.9,1.16,1.16,0,0,1,.91-1.52h.5a1.27,1.27,0,0,1,.3,2.52h-.3C38.31,31.05,38.21,31.05,38.11,31.05Z"/><path class="fb406563-b94c-43b5-ba3a-78418abfc0f4" d="M36,32.57a1.45,1.45,0,0,1-.7-.21A1.18,1.18,0,0,1,35,30.65a3.59,3.59,0,0,1,1.21-1.21c.11,0,.11-.1.21-.1L37,29h0a.1.1,0,0,0,.1-.1h0a.61.61,0,0,1,.41-.1h0c.1,0,.1,0,.2-.11a1.25,1.25,0,0,1,.6,2.42h-.1c-.1,0-.1,0-.2.1h-.1c-.1.11-.2.11-.3.21h0a.1.1,0,0,0-.1.1l-.61.6A1.11,1.11,0,0,1,36,32.57Z"/><path class="fb406563-b94c-43b5-ba3a-78418abfc0f4" d="M35.89,32.67a1.71,1.71,0,0,1-.7-.21,1.19,1.19,0,0,1-.41-1.71c0-.1.1-.1.1-.2a1.23,1.23,0,0,1,2,1.41v.1A1.11,1.11,0,0,1,35.89,32.67Z"/><path class="fb406563-b94c-43b5-ba3a-78418abfc0f4" d="M35.69,33a1.27,1.27,0,0,1-.6-.1,1.3,1.3,0,0,1-.51-1.72c0-.1.1-.1.1-.2s.1-.1.1-.2a1.25,1.25,0,0,1,2.12,1.31v.1h0a.1.1,0,0,1-.1.1A1.09,1.09,0,0,1,35.69,33Z"/><path class="fb406563-b94c-43b5-ba3a-78418abfc0f4" d="M35.29,34.28h-.1a1.25,1.25,0,0,1-1.11-1.41v-.41c0-.2.1-.3.1-.5s0-.2.1-.2a1.25,1.25,0,1,1,2.32.91h0c0,.1,0,.1-.1.2h0v.2h0A1.11,1.11,0,0,1,35.29,34.28Z"/><path class="fb406563-b94c-43b5-ba3a-78418abfc0f4" d="M35.29,34.48h0A1.33,1.33,0,0,1,34,33.17V33h0v-.1a1.23,1.23,0,0,1,1.41-1,1.19,1.19,0,0,1,1,1.41h0A1,1,0,0,1,35.29,34.48Z"/><path class="fb406563-b94c-43b5-ba3a-78418abfc0f4" d="M35.29,34.68A1.33,1.33,0,0,1,34,33.37v-.3a1.26,1.26,0,1,1,2.52.1v.1A1.18,1.18,0,0,1,35.29,34.68Z"/><path class="fb406563-b94c-43b5-ba3a-78418abfc0f4" d="M35.29,35.29a1.29,1.29,0,0,1-1.21-1.11v-.3a1.26,1.26,0,1,1,2.52-.1v.1a1.26,1.26,0,0,1-1.11,1.41Z"/><path class="fb406563-b94c-43b5-ba3a-78418abfc0f4" d="M35.69,36.5a1.17,1.17,0,0,1-1.11-.71.37.37,0,0,1-.1-.3,1.29,1.29,0,0,1,2.32-1.11c0,.1.1.1.1.2a1.31,1.31,0,0,1-.5,1.72A1.12,1.12,0,0,1,35.69,36.5Z"/><path class="fb406563-b94c-43b5-ba3a-78418abfc0f4" d="M36.6,37.61a1.12,1.12,0,0,1-.81-.31c-.1-.1-.2-.1-.3-.2a1.28,1.28,0,1,1,1.81-1.81l.1.1a1.26,1.26,0,0,1,.11,1.81A1,1,0,0,1,36.6,37.61Z"/><path class="fb406563-b94c-43b5-ba3a-78418abfc0f4" d="M33.88,44.87H22.58a1.27,1.27,0,0,1-.6-.1l-6.76-3.63A5.25,5.25,0,0,1,12.5,36.7a4.63,4.63,0,0,1,.61-2.32A5.11,5.11,0,0,1,20,32.26l6.86,3.63a3.81,3.81,0,0,0,2-1.51l5.44-10.59a1.06,1.06,0,0,0,.1-.8,1,1,0,0,0-.5-.61l-3.53-1.91a1.34,1.34,0,0,1-.61-.71,1.21,1.21,0,0,1,.1-1l3.53-6.65a1.38,1.38,0,0,1,.71-.61,1.21,1.21,0,0,1,1,.1l12.3,6.46a1.34,1.34,0,0,1,.6.7,1.2,1.2,0,0,1-.1,1L42.14,30.65a1.26,1.26,0,0,1-2.21-1.21l5.14-9.78-10-5.34-2.32,4.43,2.42,1.31a3.65,3.65,0,0,1,1.71,2.12,3.28,3.28,0,0,1-.3,2.72L31,35.49c-.8,1.41-3.33,3.63-5.34,2.62l-6.86-3.63a2.62,2.62,0,0,0-3.43,1A2.7,2.7,0,0,0,15,36.7a2.53,2.53,0,0,0,1.31,2.22l6.46,3.43H33l3.22-6.05a1.26,1.26,0,1,1,2.22,1.21l-3.53,6.65A1.22,1.22,0,0,1,33.88,44.87Z"/><path class="fb406563-b94c-43b5-ba3a-78418abfc0f4" d="M39.12,38.51A5.54,5.54,0,0,1,36.9,38a3.47,3.47,0,0,1-1-.71c-.1-.1-.2-.2-.3-.2a4.62,4.62,0,0,1-.91-1.21c0-.1-.1-.2-.1-.3h0a5.81,5.81,0,0,1-.4-1.41V32.87h0v-.51c0-.2.1-.3.1-.5h0c0-.1,0-.1.1-.2s.2-.51.3-.71.1-.1.1-.2.1-.1.1-.2h0c0-.1.1-.1.1-.2h0a3.5,3.5,0,0,1,1.21-1.21c.11-.1.11-.1.21-.1a1.88,1.88,0,0,0,.5-.31c.1,0,.1-.1.2-.1a.61.61,0,0,1,.41-.1c.1,0,.1,0,.2-.1h1.81a6.2,6.2,0,0,1,1.82.61A5.12,5.12,0,0,1,44,33.47,4.76,4.76,0,0,1,39.12,38.51Zm-2.32-4c0,.1,0,.1.1.2a2.69,2.69,0,0,0,.5.61l.11.1c.2.1.3.2.5.3a2.05,2.05,0,0,0,1.11.3,2.5,2.5,0,0,0,2.52-2.52,2.64,2.64,0,0,0-1.31-2.22,1.64,1.64,0,0,0-.91-.3H38.21c-.1,0-.1,0-.2.1h-.1c-.1,0-.2.1-.3.1h-.1l-.61.61h0v.1h0v.2a.37.37,0,0,0-.1.3h0v.1c0,.11,0,.21-.1.21v.1h0v.1h0V33h0v.3h0v.1A1.56,1.56,0,0,0,36.8,34.48Z"/><path class="fb406563-b94c-43b5-ba3a-78418abfc0f4" d="M10.69,15.83a4.44,4.44,0,1,1,4.43-4.44A4.48,4.48,0,0,1,10.69,15.83Zm0-6.25a1.92,1.92,0,1,0,1.91,1.91A1.84,1.84,0,0,0,10.69,9.58Z"/><path class="fb406563-b94c-43b5-ba3a-78418abfc0f4" d="M4.44,15.83A4.44,4.44,0,1,1,4.44,7a4.44,4.44,0,0,1,0,8.87Zm0-6.25a1.92,1.92,0,1,0,1.91,1.91A1.91,1.91,0,0,0,4.44,9.58Z"/></g></g></g></svg>