<svg xmlns="http://www.w3.org/2000/svg" viewBox="0 0 59.38 57.97"><defs><style>.afa53ed4-12a9-4ef5-9668-7188d3fb6c1d{fill:#fff;}.ab8cadc2-42d5-4842-848d-1fcbe68f18f3{fill:#b5b9ba;}.a75f4ce3-b71c-4178-ad91-b1ad4733c930{fill:#31393c;}</style></defs><g id="aa40b018-b091-4b29-8fbf-06bc81cf6c09" data-name="Layer 2"><g id="f2cdcf7e-6cbc-4877-b626-0cacc94db540" data-name="1"><g id="e4cfd6b5-ce35-415c-bf50-009b96463a7f" data-name="479, Tube, Flask, Lab, Science"><path class="afa53ed4-12a9-4ef5-9668-7188d3fb6c1d" d="M58,40.33V56.76H40.33V40.33h3.83v2.52a5,5,0,1,0,10.08,0V40.33Z"/><path class="afa53ed4-12a9-4ef5-9668-7188d3fb6c1d" d="M54.24,40.33v2.52a5,5,0,1,1-10.08,0V40.33Z"/><polygon class="afa53ed4-12a9-4ef5-9668-7188d3fb6c1d" points="54.24 22.68 54.24 40.33 44.16 40.33 44.16 22.68 50.41 22.68 54.24 22.68"/><polygon class="afa53ed4-12a9-4ef5-9668-7188d3fb6c1d" points="26.01 8.06 26.01 13.01 23.59 13.01 12.7 13.01 10.28 13.01 10.28 8.06 14.82 8.06 18.95 8.06 26.01 8.06"/><path class="ab8cadc2-42d5-4842-848d-1fcbe68f18f3" d="M19.56,27a1.82,1.82,0,1,1-1.82,1.81A1.8,1.8,0,0,1,19.56,27Z"/><path class="ab8cadc2-42d5-4842-848d-1fcbe68f18f3" d="M13.51,35.49a3,3,0,1,1-3,3A3.1,3.1,0,0,1,13.51,35.49Z"/><path class="afa53ed4-12a9-4ef5-9668-7188d3fb6c1d" d="M35.29,39.72a18.12,18.12,0,0,1-.51,4.14A17,17,0,1,1,12.6,23.59V13H23.49V23.59A16.68,16.68,0,0,1,33,31.46l.3.6A15,15,0,0,1,35.29,39.72ZM21.47,28.83a1.82,1.82,0,1,0-1.81,1.82A1.87,1.87,0,0,0,21.47,28.83Zm-4.94,9.68a3,3,0,1,0-3,3A2.91,2.91,0,0,0,16.53,38.51Z"/><path class="a75f4ce3-b71c-4178-ad91-b1ad4733c930" d="M18.25,58a18.26,18.26,0,0,1-6.86-35.18V13A1.32,1.32,0,0,1,12.6,11.7,1.33,1.33,0,0,1,13.91,13V23.69a1.3,1.3,0,0,1-.8,1.21A15.76,15.76,0,1,0,33.57,43.66a15.6,15.6,0,0,0,.51-3.84,15.87,15.87,0,0,0-1.72-7.15l-.3-.61a15.59,15.59,0,0,0-8.77-7.26,1.3,1.3,0,0,1-.91-1.21V13A1.31,1.31,0,1,1,25,13v9.67a17.77,17.77,0,0,1,9.28,8.07,6.57,6.57,0,0,0,.4.71,18.19,18.19,0,0,1,2,8.26,20.83,20.83,0,0,1-.51,4.44A18.62,18.62,0,0,1,18.25,58Z"/><path class="a75f4ce3-b71c-4178-ad91-b1ad4733c930" d="M26,14.22H10.28A1.34,1.34,0,0,1,9,12.9V8.07a1.34,1.34,0,0,1,1.31-1.32H26.11a1.34,1.34,0,0,1,1.31,1.32V12.9A1.5,1.5,0,0,1,26,14.22ZM11.49,11.7H24.8V9.38H11.49Z"/><path class="a75f4ce3-b71c-4178-ad91-b1ad4733c930" d="M40.33,58H2.52a1.31,1.31,0,1,1,0-2.62H40.33a1.31,1.31,0,1,1,0,2.62Z"/><path class="a75f4ce3-b71c-4178-ad91-b1ad4733c930" d="M13.51,42.85a4.34,4.34,0,1,1,4.33-4.34A4.31,4.31,0,0,1,13.51,42.85Zm0-6.05a1.82,1.82,0,1,0,1.81,1.81A1.8,1.8,0,0,0,13.51,36.8Z"/><path class="a75f4ce3-b71c-4178-ad91-b1ad4733c930" d="M33.67,48.19a1.1,1.1,0,0,1-1-.6,1.77,1.77,0,0,0-2.42-.51,1.23,1.23,0,1,1-1.42-2,4.25,4.25,0,0,1,6,1.21,1.23,1.23,0,0,1-.3,1.71A1.52,1.52,0,0,1,33.67,48.19Z"/><path class="a75f4ce3-b71c-4178-ad91-b1ad4733c930" d="M27.73,47.89a2,2,0,0,1-.81-.1A4.25,4.25,0,0,1,24.2,46a1.23,1.23,0,1,1,2-1.41,2.12,2.12,0,0,0,1.11.81,1.53,1.53,0,0,0,1.31-.3,1.23,1.23,0,1,1,1.41,2A3.75,3.75,0,0,1,27.73,47.89Z"/><path class="a75f4ce3-b71c-4178-ad91-b1ad4733c930" d="M21.47,48.29a1.1,1.1,0,0,1-1-.6,2.18,2.18,0,0,0-1.11-.81,1.53,1.53,0,0,0-1.31.3,1.23,1.23,0,1,1-1.41-2,4,4,0,0,1,3.22-.61,4.25,4.25,0,0,1,2.72,1.82,1.23,1.23,0,0,1-.3,1.71A1.52,1.52,0,0,1,21.47,48.29Z"/><path class="a75f4ce3-b71c-4178-ad91-b1ad4733c930" d="M15.53,48a4.53,4.53,0,0,1-3.63-1.91,1.23,1.23,0,1,1,2-1.42,1.77,1.77,0,0,0,2.42.51,1.25,1.25,0,0,1,1.72.3,1.23,1.23,0,0,1-.31,1.71A3,3,0,0,1,15.53,48Z"/><path class="a75f4ce3-b71c-4178-ad91-b1ad4733c930" d="M19.56,32a3.13,3.13,0,1,1,3.12-3.13A3.14,3.14,0,0,1,19.56,32Zm0-3.73a.61.61,0,1,0,0,1.21.61.61,0,0,0,0-1.21Z"/><path class="a75f4ce3-b71c-4178-ad91-b1ad4733c930" d="M58,58H40.33A1.33,1.33,0,0,1,39,56.66V34.08a1.31,1.31,0,0,1,2.62,0V55.45H56.76V34.08a1.31,1.31,0,0,1,2.62,0V56.76A1.5,1.5,0,0,1,58,58Z"/><path class="a75f4ce3-b71c-4178-ad91-b1ad4733c930" d="M49.2,49.2a6.38,6.38,0,0,1-6.35-6.35V22.68a1.31,1.31,0,0,1,2.62,0V42.85a3.83,3.83,0,0,0,7.66,0V22.68a1.31,1.31,0,0,1,2.62,0V42.85A6.85,6.85,0,0,1,49.2,49.2Z"/><path class="a75f4ce3-b71c-4178-ad91-b1ad4733c930" d="M58,41.64H40.33a1.31,1.31,0,1,1,0-2.62H58a1.31,1.31,0,1,1,0,2.62Z"/><path class="a75f4ce3-b71c-4178-ad91-b1ad4733c930" d="M56.76,24H41.64a1.32,1.32,0,0,1,0-2.63H56.76a1.33,1.33,0,0,1,1.31,1.31A1.41,1.41,0,0,1,56.76,24Z"/><path class="a75f4ce3-b71c-4178-ad91-b1ad4733c930" d="M50.41,24a1.34,1.34,0,0,1-1.31-1.32v-5a1.22,1.22,0,0,0-.4-.9,1.47,1.47,0,0,0-.91-.41,3.74,3.74,0,0,1-3.73-3.83V5a2.86,2.86,0,0,0-.71-1.81,2.4,2.4,0,0,0-1.81-.71A2.5,2.5,0,0,0,39,5V7a4.47,4.47,0,0,1-4.44,4.43H33.27A4.49,4.49,0,0,1,28.83,7,4.47,4.47,0,0,0,24.4,2.52,4.48,4.48,0,0,0,20,7v.6a1.31,1.31,0,0,1-2.62,0V7A7,7,0,0,1,29.24,2a6.84,6.84,0,0,1,2,4.94,2,2,0,0,0,.51,1.31,1.68,1.68,0,0,0,1.31.5h1.31A1.92,1.92,0,0,0,36.3,6.86V5a5,5,0,0,1,5-5,4.73,4.73,0,0,1,3.53,1.51A5.17,5.17,0,0,1,46.38,5V12.6a1.33,1.33,0,0,0,1.31,1.31A4.11,4.11,0,0,1,50.41,15a3.89,3.89,0,0,1,1.11,2.72v5.05C51.72,23.39,51.12,24,50.41,24Z"/></g></g></g></svg>