<svg xmlns="http://www.w3.org/2000/svg" viewBox="0 0 60.19 58.07"><defs><style>.acc48d05-0005-4b00-bb6b-c3ec6813eaca{fill:#fff;}.a3ac2ee2-b02a-4dac-9026-32753c409915{fill:#b5b9ba;}.a358215a-c7d6-4031-9ad8-a3d54565b598{fill:#31393c;}</style></defs><g id="b9f7062e-17bd-4d2e-90b4-3932d1c2eec1" data-name="Layer 2"><g id="bfdccd75-5cdb-4e93-8b4e-609fbb981526" data-name="1"><g id="a7eed63e-fc18-46d6-9d2b-4c578932fea0" data-name="480, Atom, Molecule, Science"><path class="acc48d05-0005-4b00-bb6b-c3ec6813eaca" d="M25.21,51.72a2.52,2.52,0,1,1-2.52,2.52A2.5,2.5,0,0,1,25.21,51.72Z"/><path class="acc48d05-0005-4b00-bb6b-c3ec6813eaca" d="M27.73,1.31a2.5,2.5,0,0,1,2.52,2.52,2.52,2.52,0,0,1-5,0A2.49,2.49,0,0,1,27.73,1.31Z"/><path class="acc48d05-0005-4b00-bb6b-c3ec6813eaca" d="M3.13,36.6A1.92,1.92,0,0,1,5,38.51a1.86,1.86,0,0,1-1.91,1.92,1.86,1.86,0,0,1-1.92-1.92A1.92,1.92,0,0,1,3.13,36.6Z"/><path class="a3ac2ee2-b02a-4dac-9026-32753c409915" d="M26.11,32.26A3.13,3.13,0,1,1,23,35.39,3.14,3.14,0,0,1,26.11,32.26Z"/><path class="a3ac2ee2-b02a-4dac-9026-32753c409915" d="M20,22.38a3.13,3.13,0,1,1-3.12,3.13A3.21,3.21,0,0,1,20,22.38Z"/><path class="a3ac2ee2-b02a-4dac-9026-32753c409915" d="M32.26,20a4.34,4.34,0,1,1-4.33,4.34A4.43,4.43,0,0,1,32.26,20Zm.61,4.24a.61.61,0,1,0-.61.6A.58.58,0,0,0,32.87,24.2Z"/><path class="acc48d05-0005-4b00-bb6b-c3ec6813eaca" d="M57,29.14a4.84,4.84,0,0,1,.11,7.36,5,5,0,0,1-6.66-.1,5.45,5.45,0,0,1-.91-1.11,3.81,3.81,0,0,0-2.92-1.82l-1.71-.1a16.88,16.88,0,0,1-3.73,7.46L45,45.27a1.23,1.23,0,0,0,.8.4A3.6,3.6,0,0,1,48.9,49.6,3.68,3.68,0,0,1,45.47,53a3.76,3.76,0,0,1-3.93-3.73h0a1.14,1.14,0,0,0-.3-.8l-3.83-4.34A17,17,0,0,1,27.93,47a17.3,17.3,0,0,1-9.78-3l-4.74,3.83A3.71,3.71,0,0,0,12,50.71v.41a5.05,5.05,0,0,1-4.64,4.53,4.92,4.92,0,0,1-1-9.78c.3,0,.51-.1.81-.1a3.63,3.63,0,0,0,2.42-.9l5.24-4.24a17.1,17.1,0,0,1-3.93-10.89,17.79,17.79,0,0,1,3.12-10l-.9-1A3.77,3.77,0,0,0,10,17.44h-.4a7.39,7.39,0,0,1-7.36-7.36A7.29,7.29,0,0,1,9.68,2.72a7.41,7.41,0,0,1,7.26,7.16,7.53,7.53,0,0,1-.4,2.62,3.8,3.8,0,0,0,.7,3.73l.1.1A17.21,17.21,0,0,1,28,12.6a17.46,17.46,0,0,1,10.59,3.63l4.23-3.43a3.94,3.94,0,0,0,1.31-2,4.32,4.32,0,0,1,4.13-3.13,4.35,4.35,0,0,1,.51,8.67H48a3.58,3.58,0,0,0-2.62.81l-3.43,2.72c2,2.83,3.23,10.29,3.23,10.49l2.22.2a3.58,3.58,0,0,0,2.92-1.11,1.38,1.38,0,0,1,.4-.3A4.74,4.74,0,0,1,57,29.14ZM36.6,24.2a4.34,4.34,0,1,0-4.34,4.33A4.31,4.31,0,0,0,36.6,24.2ZM35.39,36.5a.61.61,0,1,0-1.21,0,.65.65,0,0,0,.6.6C35.09,37.2,35.39,36.9,35.39,36.5Zm-6.15-1.21a3.13,3.13,0,1,0-3.13,3.12A3.14,3.14,0,0,0,29.24,35.29Zm-6.15-9.78A3.13,3.13,0,1,0,20,28.63,3.28,3.28,0,0,0,23.09,25.51Z"/><path class="a358215a-c7d6-4031-9ad8-a3d54565b598" d="M7.06,56.86A6.4,6.4,0,0,1,2.52,55,6.08,6.08,0,0,1,.81,50.31,6.33,6.33,0,0,1,6,44.56a3.44,3.44,0,0,1,1-.1,2.48,2.48,0,0,0,1.61-.6l4.23-3.43A18.55,18.55,0,0,1,9.38,29.74a19,19,0,0,1,2.82-9.88l-.1-.3a2.68,2.68,0,0,0-2-.91h-.5a8.67,8.67,0,1,1,.1-17.34,8.43,8.43,0,0,1,6,2.52,8.72,8.72,0,0,1,2.62,5.85,10.41,10.41,0,0,1-.4,3,2.16,2.16,0,0,0,0,1.62,18.39,18.39,0,0,1,10.28-3.13,18.08,18.08,0,0,1,10.59,3.33l3.52-2.82a3,3,0,0,0,.91-1.32,5.62,5.62,0,0,1,5.35-4,5.49,5.49,0,0,1,4,1.72A5.29,5.29,0,0,1,54,12.2a5.5,5.5,0,0,1-4.94,5.14h-1a2.3,2.3,0,0,0-1.71.51l-2.52,2a31.56,31.56,0,0,1,2.62,9l1.21.1a2.64,2.64,0,0,0,2-.71,2.51,2.51,0,0,1,.51-.4A6.49,6.49,0,0,1,54,26.52a5.89,5.89,0,0,1,4,1.51,6.27,6.27,0,0,1,2.12,4.64,6,6,0,0,1-2,4.63A6.22,6.22,0,0,1,54,38.92h0a6.5,6.5,0,0,1-4.23-1.62,7,7,0,0,1-1.11-1.41,2.54,2.54,0,0,0-2-1.21l-.71-.1a18.28,18.28,0,0,1-3,6.15l3.13,3.63a5,5,0,0,1-.41,9.88h-.3a5,5,0,0,1-4.94-4.94h0L37.3,45.67a18.58,18.58,0,0,1-18.85-.3l-4,3.33a2.57,2.57,0,0,0-1,1.91v.51a6.18,6.18,0,0,1-5.85,5.64A1.34,1.34,0,0,1,7.06,56.86Zm3-40.63a4.68,4.68,0,0,1,3.83,1.82l.91,1a1.22,1.22,0,0,1,.1,1.51,15.85,15.85,0,0,0,.71,19.26,1.61,1.61,0,0,1,.3.9,1,1,0,0,1-.5.81l-5.25,4.23A5.15,5.15,0,0,1,7,46.88a1.29,1.29,0,0,0-.61.1,3.77,3.77,0,0,0-3,3.43,3.4,3.4,0,0,0,1,2.72,3.37,3.37,0,0,0,2.82,1.11,3.6,3.6,0,0,0,3.43-3.33v-.3a4.77,4.77,0,0,1,1.91-3.83L17.24,43a1.37,1.37,0,0,1,1.51-.1,16.41,16.41,0,0,0,9.08,2.82,16,16,0,0,0,8.77-2.62,1.37,1.37,0,0,1,1.61.2L42,47.69a2.51,2.51,0,0,1,.61,1.71,2.44,2.44,0,0,0,2.62,2.42,2.58,2.58,0,0,0,2.32-2.22A2.45,2.45,0,0,0,45.47,47a2.62,2.62,0,0,1-1.61-.9L40,41.64A1.21,1.21,0,0,1,40,40a15.1,15.1,0,0,0,3.42-7,1.32,1.32,0,0,1,1.32-1l1.71.1a4.91,4.91,0,0,1,3.93,2.42,2.63,2.63,0,0,0,.71.81,3.78,3.78,0,0,0,2.52,1,3.48,3.48,0,0,0,2.42-.91,3.62,3.62,0,0,0,1.21-2.72A3.59,3.59,0,0,0,56,30a3.65,3.65,0,0,0-2.42-.9,3.53,3.53,0,0,0-2.22.8c-.1.1-.2.21-.3.21a5.26,5.26,0,0,1-3.53,1.41h-.41l-2.21-.2a1.29,1.29,0,0,1-1.21-1.11c-.1-.81-1.31-7.46-2.93-9.78a1.27,1.27,0,0,1,.2-1.72L44.36,16a5.28,5.28,0,0,1,3.53-1.11h.61a3.2,3.2,0,0,0,2.72-2.82,2.86,2.86,0,0,0-.81-2.32,3.21,3.21,0,0,0-2.22-1A2.94,2.94,0,0,0,45.27,11a5.66,5.66,0,0,1-1.71,2.62L39.32,17a1.23,1.23,0,0,1-1.61,0A15.94,15.94,0,0,0,18,17a1.27,1.27,0,0,1-1.72-.2l.1.1a4.9,4.9,0,0,1-.9-4.94,7.75,7.75,0,0,0,.3-2.12,6.25,6.25,0,0,0-6.05-6h-.1a6.17,6.17,0,0,0-6.15,6.15,6.11,6.11,0,0,0,6.15,6.15h.5Z"/><path class="a358215a-c7d6-4031-9ad8-a3d54565b598" d="M32.26,29.84a5.55,5.55,0,1,1,5.55-5.54A5.53,5.53,0,0,1,32.26,29.84Zm0-8.67a3,3,0,1,0,3,3A3,3,0,0,0,32.26,21.17Z"/><path class="a358215a-c7d6-4031-9ad8-a3d54565b598" d="M32.26,26.11a1.92,1.92,0,1,1,1.92-1.91A1.85,1.85,0,0,1,32.26,26.11Zm0-2.52a.58.58,0,0,0-.6.61.65.65,0,0,0,.6.6.58.58,0,0,0,.61-.6C33,23.89,32.67,23.59,32.26,23.59Z"/><path class="a358215a-c7d6-4031-9ad8-a3d54565b598" d="M34.78,38.41A1.92,1.92,0,1,1,36.7,36.5,2,2,0,0,1,34.78,38.41Zm0-2.52a.58.58,0,0,0-.6.61.61.61,0,0,0,1.21,0A.66.66,0,0,0,34.78,35.89Z"/><path class="a358215a-c7d6-4031-9ad8-a3d54565b598" d="M20,29.84a4.34,4.34,0,1,1,4.34-4.33A4.37,4.37,0,0,1,20,29.84Zm0-6.15a1.82,1.82,0,1,0,1.82,1.82A1.81,1.81,0,0,0,20,23.69Z"/><path class="a358215a-c7d6-4031-9ad8-a3d54565b598" d="M26.11,39.62a4.34,4.34,0,1,1,4.34-4.33A4.29,4.29,0,0,1,26.11,39.62Zm0-6.15a1.82,1.82,0,1,0,1.82,1.82A1.81,1.81,0,0,0,26.11,33.47Z"/><path class="a358215a-c7d6-4031-9ad8-a3d54565b598" d="M27.73,7.66a3.83,3.83,0,1,1,3.83-3.83A3.83,3.83,0,0,1,27.73,7.66Zm0-5a1.33,1.33,0,0,0-1.31,1.31,1.31,1.31,0,1,0,2.62,0A1.28,1.28,0,0,0,27.73,2.62Z"/><path class="a358215a-c7d6-4031-9ad8-a3d54565b598" d="M25.21,58.07A3.83,3.83,0,1,1,29,54.24,3.83,3.83,0,0,1,25.21,58.07Zm0-5a1.31,1.31,0,1,0,1.31,1.31A1.34,1.34,0,0,0,25.21,53Z"/><path class="a358215a-c7d6-4031-9ad8-a3d54565b598" d="M3.13,41.64a3.13,3.13,0,1,1,3.12-3.13A3.14,3.14,0,0,1,3.13,41.64Zm0-3.73a.61.61,0,1,0,0,1.21.65.65,0,0,0,.6-.61A.58.58,0,0,0,3.13,37.91Z"/></g></g></g></svg>