<svg xmlns="http://www.w3.org/2000/svg" viewBox="0 0 58 58.88"><defs><style>.bc7a46b4-c139-429d-9f94-753250b39d90{fill:#b5b9ba;}.be04df4c-1cae-4fa4-9926-aed2fdbfc566{fill:#31393c;}</style></defs><g id="e5d608a6-4fbf-4f35-8a56-581f795f5bb6" data-name="Layer 2"><g id="b9474ff2-03a0-4b5e-9faf-a678a096768e" data-name="1"><g id="edfcd1c9-6b72-4161-8f34-9e0135268946" data-name="476, Apple, Food, Science"><path class="bc7a46b4-c139-429d-9f94-753250b39d90" d="M23.82,27.83a11.64,11.64,0,0,1,3-10.29c15-15,32.17,22.08,23.9,30.35a11.15,11.15,0,0,1-4.54,2.72l-.1.2-.2.21a11.23,11.23,0,0,1-2.72,4.53c-8.27,8.27-45.27-9-30.35-23.89A11.11,11.11,0,0,1,24,28.84,4.58,4.58,0,0,1,23.82,27.83Z"/><path class="bc7a46b4-c139-429d-9f94-753250b39d90" d="M11.32,22.79A9.7,9.7,0,0,1,13.64,25a12,12,0,0,1-2.32,2.22,7.6,7.6,0,0,1-3.83,1.11,7.63,7.63,0,0,1-3.84-1.11A10.14,10.14,0,0,1,1.23,25a8.53,8.53,0,0,1,2.42-2.21,7.07,7.07,0,0,1,3.84-1.11A5.71,5.71,0,0,1,11.32,22.79Z"/><path class="be04df4c-1cae-4fa4-9926-aed2fdbfc566" d="M36.42,58.88c-4.74,0-10.69-1.71-15.93-4.54-5.74-3.12-9.88-7.05-11.59-11.09-1.31-3.12-1.82-7.76,3-12.6A12.18,12.18,0,0,1,20.79,27a7.77,7.77,0,0,1,1.52.1,12.34,12.34,0,0,1,3.53-10.38c2.62-2.62,5.44-3.94,8.36-3.94,3.43,0,6.86,1.72,10.09,5.05a36.58,36.58,0,0,1,7.05,11.09c2.73,6.55,4.34,15.62.21,19.76a12.54,12.54,0,0,1-4.64,2.92A11.11,11.11,0,0,1,44,56.26C42.37,58,39.75,58.88,36.42,58.88ZM20.79,29.54a9.91,9.91,0,0,0-7,2.92c-3,3-3.93,6.36-2.52,9.79s5.24,7,10.38,9.87c4.94,2.63,10.39,4.24,14.72,4.24,2.72,0,4.74-.61,5.85-1.82a10.29,10.29,0,0,0,2.42-4,2.19,2.19,0,0,1,.3-.5l.4-.41a2.28,2.28,0,0,1,.51-.3,11.57,11.57,0,0,0,4-2.42c2.62-2.62,2.32-9.58-.81-17-3-7.26-8.77-14.62-14.82-14.62a9.35,9.35,0,0,0-6.55,3.13,9.79,9.79,0,0,0-2.72,9.07c.1.31.1.51.2.81a1.21,1.21,0,0,1-1.51,1.51A25.13,25.13,0,0,0,20.79,29.54Z"/><path class="be04df4c-1cae-4fa4-9926-aed2fdbfc566" d="M23.82,29a1.51,1.51,0,0,1-.61-.2.1.1,0,0,1-.1-.11C13,22.58,14.34,16.64,14.34,16.33l2.52.71h0a5.1,5.1,0,0,0,.61,2.82c.8,1.62,2.62,4.14,7.05,6.86h0a1.19,1.19,0,0,1,.41,1.71A1.26,1.26,0,0,1,23.82,29Z"/><path class="be04df4c-1cae-4fa4-9926-aed2fdbfc566" d="M44.08,44.06h-.2a1.24,1.24,0,0,1-1-1.41c.81-4.44-1.81-8.87-1.81-8.87a1.25,1.25,0,0,1,2.12-1.32c.1.21,3,5.25,2.11,10.59A1.19,1.19,0,0,1,44.08,44.06Z"/><path class="be04df4c-1cae-4fa4-9926-aed2fdbfc566" d="M7.49,29.54a7.84,7.84,0,0,1-4.44-1.31A9.64,9.64,0,0,1,.23,25.61a1.34,1.34,0,0,1,0-1.51A10.41,10.41,0,0,1,3,21.58a8.16,8.16,0,0,1,4.54-1.31A8,8,0,0,1,12,21.68a8.72,8.72,0,0,1,2.62,2.52,1.34,1.34,0,0,1,0,1.51,10.41,10.41,0,0,1-2.72,2.52A7.83,7.83,0,0,1,7.49,29.54ZM2.85,24.9a5.17,5.17,0,0,0,1.41,1.21A5.88,5.88,0,0,0,7.39,27a6.22,6.22,0,0,0,3.22-.91A7,7,0,0,0,12,25a11.76,11.76,0,0,0-1.31-1.1,6.32,6.32,0,0,0-3.22-1,6,6,0,0,0-3.13.9A8.91,8.91,0,0,0,2.85,24.9Z"/><path class="be04df4c-1cae-4fa4-9926-aed2fdbfc566" d="M51.65,18.05a1.33,1.33,0,0,1-1.31-1.31v-13a1.31,1.31,0,1,1,2.62,0v13A1.34,1.34,0,0,1,51.65,18.05Z"/><path class="be04df4c-1cae-4fa4-9926-aed2fdbfc566" d="M46.6,16.84a1.34,1.34,0,0,1-1.31-1.31V9.58a1.32,1.32,0,0,1,2.63,0v5.95A1.34,1.34,0,0,1,46.6,16.84Z"/><path class="be04df4c-1cae-4fa4-9926-aed2fdbfc566" d="M41.56,10.89a1.34,1.34,0,0,1-1.31-1.31V1.31a1.31,1.31,0,0,1,2.62,0V9.58A1.27,1.27,0,0,1,41.56,10.89Z"/><path class="be04df4c-1cae-4fa4-9926-aed2fdbfc566" d="M36.52,11.49a1.33,1.33,0,0,1-1.31-1.31V5.45a1.31,1.31,0,1,1,2.62,0v4.73A1.33,1.33,0,0,1,36.52,11.49Z"/><path class="be04df4c-1cae-4fa4-9926-aed2fdbfc566" d="M56.69,10.28A1.33,1.33,0,0,1,55.38,9V6.45a1.31,1.31,0,1,1,2.62,0V9A1.33,1.33,0,0,1,56.69,10.28Z"/></g></g></g></svg>