<svg xmlns="http://www.w3.org/2000/svg" viewBox="0 0 53.7 51.07"><defs><style>.b5e05b39-137a-4c38-a16c-5f4267133a83{fill:#fff;}.a6c2dc0c-832f-4375-afe6-37124fa7a44e{fill:#b5b9ba;}.ae8f2ff6-b6a7-488a-bce8-14ec96e1d579{fill:#31393c;}</style></defs><g id="ffd26ce3-b415-4329-882c-33e14a19ee72" data-name="Layer 2"><g id="f772d585-b295-42bf-a7e5-a6ea778a5d64" data-name="2"><g id="b44c1169-e0d1-4acf-807c-675b059259f6" data-name="495, Fly, Missile, Science"><path class="b5e05b39-137a-4c38-a16c-5f4267133a83" d="M16.9,5.47a5.94,5.94,0,0,1-1.1,7.1,6.09,6.09,0,0,1-7.1,1.1,45.36,45.36,0,0,0,4.4-3.8A45.36,45.36,0,0,0,16.9,5.47Z"/><path class="b5e05b39-137a-4c38-a16c-5f4267133a83" d="M13.1,9.87a45.36,45.36,0,0,1-4.4,3.8,7.17,7.17,0,0,1-1.5-1.1,5.83,5.83,0,0,1-1.1-1.5,6,6,0,0,1,1.2-7A6.12,6.12,0,0,1,14.4,3a7.17,7.17,0,0,1,1.5,1.1A5.83,5.83,0,0,1,17,5.57C15.9,6.77,14.6,8.37,13.1,9.87Z"/><path class="a6c2dc0c-832f-4375-afe6-37124fa7a44e" d="M48.7,32.37a3.7,3.7,0,1,1-3.7,3.7A3.7,3.7,0,0,1,48.7,32.37Z"/><path class="a6c2dc0c-832f-4375-afe6-37124fa7a44e" d="M41.7,44.77a1.9,1.9,0,0,1,1.9,1.9,1.84,1.84,0,0,1-1.9,1.9,1.9,1.9,0,0,1-1.9-1.9A1.84,1.84,0,0,1,41.7,44.77Z"/><path class="a6c2dc0c-832f-4375-afe6-37124fa7a44e" d="M3.1,37.27a1.9,1.9,0,1,1-1.9,1.9A1.9,1.9,0,0,1,3.1,37.27Z"/><polygon class="a6c2dc0c-832f-4375-afe6-37124fa7a44e" points="21 38.37 18 41.37 15.3 43.97 9.2 37.87 11.9 35.27 14.9 32.27 21 38.37"/><path class="b5e05b39-137a-4c38-a16c-5f4267133a83" d="M24.8,42.17l7.1-7.1c-3,10.1.4,11.9-2.4,14.8l-6.2-6.2Z"/><path class="b5e05b39-137a-4c38-a16c-5f4267133a83" d="M18.1,21.27,11,28.37l-1.4,1.4-6.2-6.2C6.2,20.77,8,24.27,18.1,21.27Z"/><path class="a6c2dc0c-832f-4375-afe6-37124fa7a44e" d="M39,28.07l-3.9-3.9c2.8-2.8,5.2-3.2,6.1-2.3C42.2,23,41.6,25.47,39,28.07Z"/><path class="a6c2dc0c-832f-4375-afe6-37124fa7a44e" d="M31.3,12c1,1,.4,3.5-2.3,6.1l-3.9-3.9C27.9,11.47,30.3,11,31.3,12Z"/><polygon class="a6c2dc0c-832f-4375-afe6-37124fa7a44e" points="39 28.07 32 35.07 24.8 42.17 23.4 43.67 21.8 45.17 18 41.37 21 38.37 35.1 24.17 39 28.07"/><polygon class="a6c2dc0c-832f-4375-afe6-37124fa7a44e" points="29 18.07 14.9 32.27 11.9 35.27 8 31.37 9.6 29.77 11 28.37 18.1 21.27 25.1 14.27 29 18.07"/><path class="a6c2dc0c-832f-4375-afe6-37124fa7a44e" d="M43.2,16.07l-6.3,6.3h0a4.54,4.54,0,0,0,.3-6.3,4.45,4.45,0,0,0-6.3.3h0l6.3-6.3Z"/><path class="b5e05b39-137a-4c38-a16c-5f4267133a83" d="M37.2,16.07a4.45,4.45,0,0,1-.3,6.3c-1.8,1.8-4.7,2-6.3.3a4.45,4.45,0,0,1,.3-6.3A4.36,4.36,0,0,1,37.2,16.07Z"/><path class="a6c2dc0c-832f-4375-afe6-37124fa7a44e" d="M36.9,22.37l-1.8,1.8L21,38.37l-6.1-6.1L29,18.17l1.8-1.8h0c-1.8,1.8-2,4.7-.3,6.3a4.67,4.67,0,0,0,6.4-.3Z"/><path class="a6c2dc0c-832f-4375-afe6-37124fa7a44e" d="M46.7,6.47c1.6,1.5.6,5.5-3.5,9.6L37.1,10C41.4,5.67,45.2,4.87,46.7,6.47Z"/><path class="ae8f2ff6-b6a7-488a-bce8-14ec96e1d579" d="M9.6,31.07a1.22,1.22,0,0,1-.9-.4l-6.2-6.2a1.49,1.49,0,0,1-.4-.9,1.09,1.09,0,0,1,.4-.9c1.7-1.7,3.3-1.6,5.3-1.5a26.19,26.19,0,0,0,10-1.2,1.26,1.26,0,1,1,.8,2.4,29.49,29.49,0,0,1-10.9,1.3,5.29,5.29,0,0,0-2.3.1l5.1,5.1a1.27,1.27,0,0,1,0,1.8A1.8,1.8,0,0,1,9.6,31.07Z"/><path class="ae8f2ff6-b6a7-488a-bce8-14ec96e1d579" d="M43.2,17.37a1.22,1.22,0,0,1-.9-.4,1.27,1.27,0,0,1,0-1.8c3.7-3.7,4.4-7,3.5-7.9a1.67,1.67,0,0,0-1.1-.4h0c-1.8,0-4.3,1.5-6.7,3.9A1.27,1.27,0,1,1,36.2,9c3-3,6-4.6,8.5-4.6h0a4,4,0,0,1,2.9,1.1c1.1,1.1,1.3,3,.6,5.1a17.31,17.31,0,0,1-4.2,6.3A.82.82,0,0,1,43.2,17.37Z"/><path class="ae8f2ff6-b6a7-488a-bce8-14ec96e1d579" d="M35.1,25.47a1.22,1.22,0,0,1-.9-.4,1.27,1.27,0,0,1,0-1.8l7.2-7.2-4.3-4.3L29.9,19a1.27,1.27,0,0,1-1.8-1.8l8.1-8.1a1.49,1.49,0,0,1,.9-.4h0a1.22,1.22,0,0,1,.9.4l6.1,6.1a1.27,1.27,0,0,1,0,1.8L36,25.07A1.22,1.22,0,0,1,35.1,25.47Z"/><path class="ae8f2ff6-b6a7-488a-bce8-14ec96e1d579" d="M33.5,25.07h0a5.37,5.37,0,0,1-3.8-1.5,5,5,0,0,1-1.5-4,6.16,6.16,0,0,1,1.8-4,6,6,0,0,1,4.3-1.8,5.37,5.37,0,0,1,3.8,1.5,5,5,0,0,1,1.5,4,6.16,6.16,0,0,1-1.8,4A6.62,6.62,0,0,1,33.5,25.07Zm.8-9a3.58,3.58,0,0,0-2.5,1.1,3.81,3.81,0,0,0-1.1,2.4,3,3,0,0,0,.8,2.2,2.79,2.79,0,0,0,2,.8,3.41,3.41,0,0,0,2.5-1.1,3.81,3.81,0,0,0,1.1-2.4,2.65,2.65,0,0,0-.8-2.1A2.52,2.52,0,0,0,34.3,16.07Z"/><path class="ae8f2ff6-b6a7-488a-bce8-14ec96e1d579" d="M39,29.27a1.22,1.22,0,0,1-.9-.4,1.27,1.27,0,0,1,0-1.8c2.3-2.3,2.5-4.1,2.2-4.4a1,1,0,0,0-.4-.1h0c-.8,0-2.2.6-4,2.4a1.27,1.27,0,0,1-1.8-1.8c2-2,4-3.1,5.7-3.1h0a2.86,2.86,0,0,1,2.1.8c1.6,1.7.7,4.9-2.3,7.9C39.6,29.17,39.3,29.27,39,29.27Z"/><path class="ae8f2ff6-b6a7-488a-bce8-14ec96e1d579" d="M29,19.37a1.22,1.22,0,0,1-.9-.4,1.27,1.27,0,0,1,0-1.8c2.3-2.3,2.5-4.1,2.2-4.4a1,1,0,0,0-.4-.1h0c-.8,0-2.2.6-4,2.4a1.27,1.27,0,0,1-1.8-1.8c2-2,4-3.1,5.8-3.1A2.86,2.86,0,0,1,32,11c1.6,1.7.7,4.9-2.3,7.9A.64.64,0,0,1,29,19.37Z"/><path class="ae8f2ff6-b6a7-488a-bce8-14ec96e1d579" d="M29.6,51.07h0a1.09,1.09,0,0,1-.9-.4l-6.2-6.2a1.27,1.27,0,1,1,1.8-1.8l5.1,5.1a7.81,7.81,0,0,0,.1-2.3,29.82,29.82,0,0,1,1.3-10.9,1.26,1.26,0,1,1,2.4.8,26.19,26.19,0,0,0-1.2,10c.1,2,.2,3.6-1.5,5.3A1.22,1.22,0,0,1,29.6,51.07Z"/><path class="ae8f2ff6-b6a7-488a-bce8-14ec96e1d579" d="M11.9,36.47a1.22,1.22,0,0,1-.9-.4l-3.9-3.9a1.49,1.49,0,0,1-.4-.9,1.22,1.22,0,0,1,.4-.9l17.2-17a1.27,1.27,0,0,1,1.8,0l3.9,3.9a1.27,1.27,0,0,1,0,1.8L15.7,33.17a1.27,1.27,0,1,1-1.8-1.8l13.3-13.3L25.1,16,9.8,31.37l3,3a1.27,1.27,0,0,1,0,1.8A1.61,1.61,0,0,1,11.9,36.47Z"/><path class="ae8f2ff6-b6a7-488a-bce8-14ec96e1d579" d="M15.3,45.27a1.22,1.22,0,0,1-.9-.4l-6.1-6.1a1.49,1.49,0,0,1-.4-.9,1.22,1.22,0,0,1,.4-.9l5.6-5.6a1.49,1.49,0,0,1,.9-.4,1.22,1.22,0,0,1,.9.4l6.1,6.1a1.27,1.27,0,1,1-1.8,1.8L14.9,34,11,37.87l4.3,4.3,1.8-1.8a1.27,1.27,0,1,1,1.8,1.8l-2.7,2.7A1.49,1.49,0,0,1,15.3,45.27Z"/><path class="ae8f2ff6-b6a7-488a-bce8-14ec96e1d579" d="M21.8,46.47a1.22,1.22,0,0,1-.9-.4L17,42.17a1.49,1.49,0,0,1-.4-.9,1.22,1.22,0,0,1,.4-.9l17.1-17.1a1.27,1.27,0,0,1,1.8,0l3.9,3.9a1.49,1.49,0,0,1,.4.9,1.22,1.22,0,0,1-.4.9L22.7,46.07A1,1,0,0,1,21.8,46.47Zm-2.1-5.1,2.1,2.1,15.4-15.4L35.1,26Z"/><path class="ae8f2ff6-b6a7-488a-bce8-14ec96e1d579" d="M16.9,6.77a1.45,1.45,0,0,1-.7-.2,1.18,1.18,0,0,1-.3-1.7,9.2,9.2,0,0,0,1.3-2.1,9.2,9.2,0,0,0-2.1,1.3,1.17,1.17,0,0,1-1.7-.3,1.17,1.17,0,0,1,.3-1.7C16.6,0,18.4-.53,19.5.57s.6,2.9-1.5,5.8A2.1,2.1,0,0,1,16.9,6.77Z"/><path class="ae8f2ff6-b6a7-488a-bce8-14ec96e1d579" d="M5,16.77a2.17,2.17,0,0,1-1.4-.5c-1.1-1.1-.6-2.9,1.5-5.8a1.18,1.18,0,0,1,1.7-.3,1.18,1.18,0,0,1,.3,1.7A9.2,9.2,0,0,0,5.8,14a9.2,9.2,0,0,0,2.1-1.3,1.22,1.22,0,1,1,1.4,2C7.5,16.07,6.1,16.77,5,16.77Z"/><path class="ae8f2ff6-b6a7-488a-bce8-14ec96e1d579" d="M11.5,15.67a6.92,6.92,0,0,1-3.4-.9,1.25,1.25,0,1,1,1.2-2.2,4.88,4.88,0,0,0,5.7-.9A5,5,0,0,0,15.9,6a1.25,1.25,0,1,1,2.2-1.2,7.28,7.28,0,0,1-1.3,8.6A7.53,7.53,0,0,1,11.5,15.67Z"/><path class="ae8f2ff6-b6a7-488a-bce8-14ec96e1d579" d="M8.7,15a1.27,1.27,0,0,1-.6-.1,10.15,10.15,0,0,1-1.8-1.3A5.94,5.94,0,0,1,5,11.77a7.28,7.28,0,0,1,1.3-8.6,7.17,7.17,0,0,1,5.2-2.1,7.73,7.73,0,0,1,3.4.8,10.15,10.15,0,0,1,1.8,1.3A5.94,5.94,0,0,1,18,5a1.23,1.23,0,0,1-.1,1.3,37.8,37.8,0,0,1-3.9,4.5,37.8,37.8,0,0,1-4.5,3.9A1.33,1.33,0,0,1,8.7,15Zm2.8-11.5a4.76,4.76,0,0,0-3.4,1.4,5,5,0,0,0-.9,5.7,4.7,4.7,0,0,0,.9,1.2,1.76,1.76,0,0,0,.5.4c1.1-.9,2.4-2,3.6-3.2a34.5,34.5,0,0,0,3.2-3.6c-.1-.2-.3-.3-.4-.5A6.23,6.23,0,0,0,13.8,4,5.93,5.93,0,0,0,11.5,3.47Z"/><path class="ae8f2ff6-b6a7-488a-bce8-14ec96e1d579" d="M3.1,42.27a3.1,3.1,0,1,1,0-6.2,3.1,3.1,0,1,1,0,6.2Zm0-3.7a.6.6,0,1,0,0,1.2.6.6,0,0,0,0-1.2Z"/><path class="ae8f2ff6-b6a7-488a-bce8-14ec96e1d579" d="M41.7,49.77a3.1,3.1,0,1,1,3.1-3.1A3.18,3.18,0,0,1,41.7,49.77Zm0-3.8a.6.6,0,0,0,0,1.2.58.58,0,0,0,.6-.6A.65.65,0,0,0,41.7,46Z"/><path class="ae8f2ff6-b6a7-488a-bce8-14ec96e1d579" d="M48.7,41.07a5,5,0,1,1,5-5A5,5,0,0,1,48.7,41.07Zm0-7.5a2.5,2.5,0,1,0,2.5,2.5A2.48,2.48,0,0,0,48.7,33.57Z"/></g></g></g></svg>